<svg width="10" height="9" viewBox="0 0 10 9" fill="none" xmlns="http://www.w3.org/2000/svg">
<g clip-path="url(#clip0_969_9)">
<path d="M4.66192 0.0163631C4.40231 0.0651636 4.22736 0.198552 4.154 0.42466C4.0731 0.673543 4.16152 0.880131 4.36657 1.05581C5.15667 1.73739 5.94866 2.41735 6.74064 3.09893C7.13569 3.44053 7.52886 3.78539 7.96342 4.16278L4.36281 7.27625C4.06182 7.53652 4.04489 7.9074 4.30825 8.14815C4.5735 8.3889 5.02311 8.39215 5.31846 8.13839C6.6842 6.96392 8.04807 5.78458 9.4063 4.60361C9.70164 4.34659 9.70917 3.98709 9.41758 3.73171C8.05372 2.54423 6.68609 1.36163 5.31469 0.182285C5.1341 0.0293766 4.91212 -0.0324374 4.66192 0.0163631Z" fill="black"/>
<path d="M0.536918 0.0163446C0.279194 0.0651451 0.104243 0.198533 0.0308762 0.424642C-0.0500152 0.675151 0.038401 0.880113 0.243451 1.05579C1.03355 1.73737 1.82554 2.41733 2.61752 3.09891C3.01257 3.44051 3.40574 3.78537 3.8403 4.16276L0.237808 7.27623C-0.0631836 7.5365 -0.0801144 7.90738 0.183253 8.14813C0.448502 8.38888 0.898108 8.39213 1.19346 8.13837C2.5592 6.9639 3.92307 5.78456 5.2813 4.60359C5.57664 4.34657 5.58417 3.98707 5.29258 3.73169C3.9306 2.54746 2.56297 1.36324 1.18969 0.183893C1.01098 0.0293581 0.788999 -0.0324559 0.536918 0.0163446Z" fill="black"/>
</g>
<defs>
<clipPath id="clip0_969_9">
<rect width="9.6317" height="8.32861" fill="white"/>
</clipPath>
</defs>
</svg>
