<svg width="800" height="389" viewBox="0 0 800 389" fill="none" xmlns="http://www.w3.org/2000/svg">
<g clip-path="url(#clip0_872_74)">
<g clip-path="url(#clip1_872_74)">
<mask id="mask0_872_74" style="mask-type:luminance" maskUnits="userSpaceOnUse" x="0" y="-110" width="800" height="600">
<path d="M800 -110H0V490H800V-110Z" fill="white"/>
</mask>
<g mask="url(#mask0_872_74)">
<path d="M176.452 212.817V126.487C176.452 116.139 171.426 112 161.078 112C144.817 112 127.965 117.322 112 124.122V129.148H136.243V224.052C136.243 263.965 153.391 280.227 183.548 280.227C203.356 280.227 221.982 271.061 237.652 256.574V258.644C238.834 273.426 247.113 279.043 265.443 279.043C277.565 279.043 293.826 271.947 303.878 263.373L303.286 260.713H280.521L277.86 202.766V127.374C277.86 117.026 272.539 112.591 261.895 112.591C245.634 112.591 229.374 117.617 213.408 124.122V129.148H237.652V247.408C228.487 251.547 220.208 254.8 210.748 254.8C186.8 254.8 176.452 242.973 176.452 212.817Z" fill="black"/>
</g>
<mask id="mask1_872_74" style="mask-type:luminance" maskUnits="userSpaceOnUse" x="0" y="-110" width="800" height="600">
<path d="M800 -110H0V490H800V-110Z" fill="white"/>
</mask>
<g mask="url(#mask1_872_74)">
<path d="M580.692 257.479C578.382 257.479 577.014 256.253 577.014 253.566C577.014 251.398 578.476 250.03 581.493 249.323C582.625 249.041 584.181 248.852 585.359 248.664V255.877C583.615 256.96 582.106 257.479 580.692 257.479ZM581.069 247.956C576.024 248.568 570.793 250.266 570.793 255.781C570.793 258.845 573.149 261.203 577.109 261.203C580.55 261.203 583.237 259.317 585.359 256.678V257.385C585.453 260.025 586.773 261.109 589.79 261.109C591.63 261.109 594.223 260.025 595.92 258.61L595.872 258.186H592.195L591.77 248.522V241.969C591.77 236.029 587.575 234.52 583.426 234.52C579.089 234.52 574.563 237.113 572.677 238.716L573.102 239.329C574.846 238.339 577.297 237.725 579.513 237.725C582.576 237.725 585.359 239.092 585.359 242.817V247.531L581.069 247.956ZM560.043 229.853C560.893 229.853 563.722 226.836 563.722 226.223C563.722 225.469 560.752 222.64 560.043 222.64C559.337 222.64 556.462 225.375 556.462 226.223C556.462 226.977 559.289 229.853 560.043 229.853ZM563.438 247.909V236.783C563.438 235.133 562.636 234.472 560.986 234.472C558.393 234.472 555.706 235.321 553.161 236.405V237.208H557.026V247.909L556.838 257.243C556.79 258.609 556.365 259.269 554.858 259.694L553.443 260.024C553.443 260.259 553.443 260.496 553.538 260.778H567.162C567.257 260.543 567.304 260.213 567.304 260.024L565.277 259.552C564.005 259.222 563.58 258.515 563.58 257.242L563.438 247.909ZM528.883 236.783C528.883 235.133 528.081 234.472 526.431 234.472C523.839 234.472 521.151 235.321 518.606 236.405V237.208H522.471V247.909L522.283 257.243C522.236 258.609 521.811 259.269 520.304 259.694L518.89 260.024C518.89 260.259 518.89 260.496 518.984 260.778H532.608C532.703 260.543 532.75 260.213 532.75 260.024L530.724 259.552C529.451 259.222 529.026 258.515 529.026 257.242L528.885 247.908V239.8C530.724 238.952 532.372 238.622 533.882 238.622C537.653 238.622 539.538 240.365 539.585 244.985V247.909L539.397 257.243C539.35 258.609 538.925 259.269 537.417 259.694L536.004 260.024C536.004 260.259 536.004 260.496 536.098 260.778H549.722C549.816 260.543 549.864 260.213 549.864 260.024L547.837 259.552C546.565 259.222 546.14 258.515 546.14 257.242L545.998 247.908V243.429C545.998 237.018 543.075 234.472 538.267 234.472C534.779 234.472 531.384 236.311 528.886 238.621V236.783H528.883ZM503.189 236.028C506.961 236.028 508.375 239.517 508.375 245.598H496.731C496.872 238.527 499.513 236.028 503.189 236.028ZM514.362 247.202V246.069C514.362 239.564 511.156 234.472 503.566 234.472C495.929 234.472 490.696 241.167 490.696 248.804C490.696 256.959 494.468 261.249 502.718 261.249C507.385 261.249 511.298 259.411 513.231 256.912L512.901 256.44C510.214 257.43 507.715 257.713 505.782 257.713C500.644 257.713 497.202 254.79 496.778 247.388V247.2H514.362V247.202ZM443.648 237.208V247.909L443.459 257.243C443.412 258.609 442.988 259.269 441.48 259.694L440.066 260.024C440.066 260.259 440.066 260.496 440.16 260.778H453.784C453.88 260.543 453.927 260.213 453.927 260.024L451.9 259.552C450.627 259.222 450.203 258.515 450.203 257.242L450.061 247.908V239.658C451.57 238.951 453.124 238.621 454.54 238.621C458.311 238.621 460.009 240.364 460.056 244.984V247.908L459.868 257.242C459.821 258.608 459.396 259.268 457.889 259.693L456.475 260.023C456.475 260.258 456.475 260.495 456.569 260.777H470.193C470.287 260.542 470.335 260.212 470.335 260.023L468.308 259.551C467.036 259.221 466.611 258.514 466.611 257.241L466.47 247.907V243.428C466.47 242.061 466.327 240.883 466.093 239.846C467.789 239.044 469.393 238.62 470.995 238.62C474.766 238.62 476.463 240.363 476.511 244.983V247.907L476.323 257.241C476.276 258.607 475.851 259.267 474.344 259.692L472.929 260.022C472.929 260.257 472.929 260.494 473.024 260.776H486.695C486.79 260.541 486.837 260.211 486.837 260.022L484.763 259.55C483.491 259.22 483.066 258.513 483.066 257.24L482.925 247.906V243.427C482.925 237.016 480.191 234.47 475.381 234.47C471.751 234.47 468.404 236.45 465.859 238.996C464.728 235.79 462.276 234.47 458.881 234.47C455.581 234.47 452.518 236.309 450.066 238.572V236.781C450.066 235.131 449.265 234.47 447.615 234.47C445.022 234.47 442.335 235.319 439.789 236.403V237.206H443.648V237.208ZM416.069 250.549V236.783C416.069 235.133 415.268 234.472 413.618 234.472C411.025 234.472 408.339 235.321 405.793 236.405V237.208H409.658V252.34C409.658 258.705 412.392 261.298 417.2 261.298C420.359 261.298 423.329 259.836 425.828 257.526V257.856C426.016 260.213 427.337 261.109 430.26 261.109C432.193 261.109 434.785 259.978 436.389 258.61L436.294 258.186H432.663L432.239 248.946V236.925C432.239 235.275 431.391 234.567 429.693 234.567C427.1 234.567 424.508 235.37 421.963 236.406V237.209H425.828V256.065C424.366 256.725 423.047 257.244 421.538 257.244C417.72 257.243 416.069 255.357 416.069 250.549Z" fill="black"/>
</g>
<mask id="mask2_872_74" style="mask-type:luminance" maskUnits="userSpaceOnUse" x="0" y="-110" width="800" height="600">
<path d="M800 -110H0V490H800V-110Z" fill="white"/>
</mask>
<g mask="url(#mask2_872_74)">
<path d="M674.081 194.643V180.876C674.081 179.226 673.278 178.566 671.629 178.566C669.036 178.566 666.349 179.415 663.804 180.499V181.3H667.669V196.433C667.669 202.797 670.403 205.389 675.212 205.389C678.37 205.389 681.341 203.928 683.839 201.618V201.948C684.027 204.304 685.348 205.201 688.271 205.201C690.205 205.201 692.797 204.069 694.399 202.702L694.305 202.278H690.675L690.251 193.038V181.016C690.251 179.366 689.401 178.659 687.705 178.659C685.111 178.659 682.518 179.461 679.974 180.498V181.299H683.839V200.157C682.378 200.817 681.058 201.335 679.549 201.335C675.73 201.336 674.081 199.45 674.081 194.643ZM643.627 181.3V192.002L643.439 201.336C643.391 202.703 642.967 203.363 641.46 203.788L640.045 204.118C640.045 204.353 640.045 204.589 640.139 204.872H653.764C653.858 204.636 653.905 204.306 653.905 204.118L651.879 203.646C650.606 203.316 650.182 202.609 650.182 201.335L650.041 192.001V184.552C651.36 183.751 653.104 183.091 655.038 183.091C656.641 183.091 658.148 183.421 659.562 184.175L661.166 179.131C660.27 178.801 659.375 178.565 658.148 178.565C654.471 178.565 651.548 180.969 650.041 183.609V180.875C650.041 179.225 649.238 178.565 647.589 178.565C644.995 178.565 642.309 179.414 639.763 180.498V181.299L643.627 181.3ZM628.446 192.426C628.446 199.404 627.032 203.882 622.79 203.882C617.887 203.882 616.566 198.508 616.566 191.484C616.566 184.743 617.839 180.028 622.223 180.028C627.457 180.027 628.446 186.816 628.446 192.426ZM635.282 191.672C635.282 182.762 630.757 178.566 622.742 178.566C615.388 178.566 609.777 185.59 609.777 192.473C609.777 201.336 614.163 205.39 622.317 205.39C629.908 205.39 635.282 198.178 635.282 191.672ZM597.71 192.002C597.71 198.932 595.588 203.505 590.921 203.505C589.177 203.505 588.093 203.222 587.056 202.798L586.961 190.823V182.997C588.046 182.62 589.695 181.96 591.346 181.96C595.493 181.96 597.71 184.317 597.71 192.002ZM604.403 191.106C604.403 182.573 600.963 178.613 594.315 178.613C591.204 178.613 588.846 180.169 586.961 181.913V180.876C586.961 179.226 586.159 178.566 584.51 178.566C581.917 178.566 579.23 179.415 576.684 180.499V181.3H580.55V191.53L580.173 211.708C580.126 213.075 579.7 213.735 578.193 214.159L576.778 214.489C576.778 214.724 576.778 214.96 576.874 215.243H590.78C590.875 215.008 590.922 214.678 590.922 214.489L588.895 214.018C587.622 213.688 587.198 212.98 587.198 211.707L587.104 205.012C588.094 205.155 589.084 205.248 590.545 205.248C598.181 205.249 604.403 200.771 604.403 191.106ZM559.006 201.996C555.329 201.996 552.123 198.932 552.123 191.106C552.123 183.939 554.339 180.168 559.241 180.168C560.75 180.168 561.929 180.498 563.059 181.016V201.241C561.882 201.666 560.467 201.996 559.006 201.996ZM567.539 205.202C569.472 205.202 572.017 204.07 573.667 202.703L573.572 202.279H569.942L569.471 192.19V170.882C569.471 169.232 568.669 168.572 567.019 168.572C564.426 168.572 561.739 169.42 559.194 170.552V171.306H563.059V178.943C562.022 178.802 560.702 178.707 559.052 178.707C551.651 178.707 545.758 184.176 545.758 192.803C545.758 203.222 551.085 205.202 555.987 205.202C558.721 205.202 561.22 203.835 563.105 202.232C563.343 204.354 564.71 205.202 567.539 205.202ZM533.689 192.426C533.689 199.404 532.275 203.882 528.032 203.882C523.13 203.882 521.809 198.508 521.809 191.484C521.809 184.743 523.082 180.028 527.466 180.028C532.699 180.027 533.689 186.816 533.689 192.426ZM540.525 191.672C540.525 182.762 536 178.566 527.985 178.566C520.631 178.566 515.02 185.59 515.02 192.473C515.02 201.336 519.405 205.39 527.561 205.39C535.151 205.39 540.525 198.178 540.525 191.672ZM502.952 192.002C502.952 198.932 500.832 203.505 496.164 203.505C494.42 203.505 493.336 203.222 492.299 202.798L492.204 190.823V182.997C493.289 182.62 494.938 181.96 496.589 181.96C500.736 181.96 502.952 184.317 502.952 192.002ZM509.646 191.106C509.646 182.573 506.206 178.613 499.558 178.613C496.446 178.613 494.089 180.169 492.204 181.913V180.876C492.204 179.226 491.402 178.566 489.753 178.566C487.159 178.566 484.473 179.415 481.927 180.499V181.3H485.793V191.53L485.416 211.708C485.368 213.075 484.943 213.735 483.436 214.159L482.021 214.489C482.021 214.724 482.021 214.96 482.116 215.243H496.023C496.117 215.008 496.165 214.678 496.165 214.489L494.138 214.018C492.865 213.688 492.441 212.98 492.441 211.707L492.347 205.012C493.337 205.155 494.326 205.248 495.787 205.248C503.424 205.249 509.646 200.771 509.646 191.106ZM450.907 201.572C448.597 201.572 447.23 200.345 447.23 197.659C447.23 195.49 448.691 194.123 451.709 193.416C452.841 193.133 454.396 192.945 455.574 192.756V199.969C453.831 201.053 452.321 201.572 450.907 201.572ZM451.284 192.049C446.24 192.662 441.008 194.36 441.008 199.875C441.008 202.939 443.364 205.296 447.324 205.296C450.765 205.296 453.452 203.41 455.574 200.771V201.479C455.669 204.119 456.988 205.203 460.006 205.203C461.845 205.203 464.438 204.119 466.135 202.704L466.088 202.28H462.41L461.985 192.616V186.063C461.985 180.123 457.791 178.614 453.641 178.614C449.304 178.614 444.778 181.207 442.892 182.81L443.317 183.423C445.061 182.433 447.512 181.82 449.728 181.82C452.792 181.82 455.574 183.187 455.574 186.911V191.626L451.284 192.049ZM416.728 180.876C416.728 179.226 415.927 178.566 414.277 178.566C411.684 178.566 408.998 179.415 406.451 180.499V181.3H410.317V192.002L410.129 201.336C410.082 202.703 409.657 203.363 408.149 203.788L406.735 204.118C406.735 204.353 406.735 204.589 406.83 204.872H420.453C420.549 204.636 420.596 204.306 420.596 204.118L418.569 203.646C417.297 203.316 416.872 202.609 416.872 201.335L416.73 192.001V183.892C418.569 183.044 420.219 182.714 421.727 182.714C425.499 182.714 427.384 184.458 427.432 189.078V192.001L427.243 201.335C427.196 202.702 426.772 203.362 425.264 203.787L423.85 204.117C423.85 204.352 423.85 204.588 423.944 204.871H437.568C437.663 204.635 437.711 204.305 437.711 204.117L435.684 203.645C434.411 203.315 433.986 202.608 433.986 201.334L433.845 192V187.521C433.845 181.11 430.922 178.564 426.114 178.564C422.626 178.564 419.231 180.403 416.732 182.713V180.876H416.728Z" fill="black"/>
</g>
<mask id="mask3_872_74" style="mask-type:luminance" maskUnits="userSpaceOnUse" x="0" y="-110" width="800" height="600">
<path d="M800 -110H0V490H800V-110Z" fill="white"/>
</mask>
<g mask="url(#mask3_872_74)">
<path d="M505.688 146.425C502.01 146.425 498.805 143.36 498.805 135.535C498.805 128.369 501.02 124.597 505.923 124.597C507.432 124.597 508.61 124.927 509.741 125.446V145.67C508.563 146.095 507.149 146.425 505.688 146.425ZM514.221 149.63C516.154 149.63 518.7 148.499 520.35 147.132L520.256 146.708H516.626L516.153 136.619V115.31C516.153 113.66 515.352 113 513.702 113C511.109 113 508.423 113.849 505.877 114.98V115.735H509.742V123.372C508.705 123.23 507.386 123.136 505.735 123.136C498.334 123.136 492.44 128.605 492.44 137.232C492.44 147.65 497.768 149.63 502.67 149.63C505.404 149.63 507.902 148.263 509.789 146.66C510.025 148.782 511.393 149.63 514.221 149.63ZM467.407 125.305C467.407 123.655 466.606 122.995 464.957 122.995C462.363 122.995 459.677 123.843 457.131 124.927V125.729H460.996V136.43L460.808 145.765C460.761 147.132 460.337 147.792 458.828 148.216L457.415 148.546C457.415 148.782 457.415 149.018 457.509 149.3H471.134C471.228 149.065 471.275 148.735 471.275 148.546L469.248 148.075C467.976 147.745 467.552 147.038 467.552 145.765L467.409 136.43V128.322C469.248 127.473 470.898 127.143 472.407 127.143C476.178 127.143 478.064 128.888 478.111 133.508V136.43L477.923 145.765C477.876 147.132 477.451 147.792 475.943 148.216L474.529 148.546C474.529 148.782 474.529 149.018 474.623 149.3H488.248C488.343 149.065 488.39 148.735 488.39 148.546L486.363 148.075C485.091 147.745 484.666 147.038 484.666 145.765L484.524 136.43V131.952C484.524 125.54 481.601 122.995 476.794 122.995C473.305 122.995 469.91 124.833 467.411 127.143V125.305H467.407ZM445.816 136.854C445.816 143.831 444.402 148.309 440.159 148.309C435.257 148.309 433.936 142.935 433.936 135.911C433.936 129.169 435.209 124.455 439.593 124.455C444.826 124.456 445.816 131.245 445.816 136.854ZM452.652 136.1C452.652 127.19 448.127 122.995 440.112 122.995C432.758 122.995 427.147 130.019 427.147 136.902C427.147 145.765 431.532 149.819 439.687 149.819C447.277 149.819 452.652 142.605 452.652 136.1ZM429.27 116.536C429.27 114.179 425.687 113 421.209 113C416.069 113 410.365 117.243 410.365 122.429V125.069L406.594 125.493V127.049H410.365V136.43L410.177 145.765C410.13 147.132 409.705 147.792 408.197 148.216L406.783 148.546C406.783 148.782 406.783 149.018 406.878 149.3H420.55C420.644 149.065 420.691 148.735 420.691 148.546L418.664 148.075C417.392 147.745 416.968 147.038 416.968 145.765L416.825 136.43V127.049H422.435V125.069H416.825V122.099C416.825 118.045 417.345 114.415 421.445 114.415C423.567 114.415 425.028 117.102 426.632 119.6C428.044 118.987 429.27 118.186 429.27 116.536Z" fill="black"/>
</g>
<mask id="mask4_872_74" style="mask-type:luminance" maskUnits="userSpaceOnUse" x="0" y="-110" width="800" height="600">
<path d="M800 -110H0V490H800V-110Z" fill="white"/>
</mask>
<g mask="url(#mask4_872_74)">
<path d="M363.145 261.828C363.145 256.484 346.315 240.188 341.239 240.188C336.163 240.188 319.6 256.217 319.6 261.828C319.6 267.171 336.163 284.001 341.239 284.001C346.315 284.001 363.145 266.903 363.145 261.828Z" fill="black"/>
</g>
</g>
</g>
<defs>
<clipPath id="clip0_872_74">
<rect width="800" height="389" fill="white"/>
</clipPath>
<clipPath id="clip1_872_74">
<rect width="800" height="600" fill="white" transform="translate(0 -89)"/>
</clipPath>
</defs>
</svg>
