<svg width="800" height="457" viewBox="0 0 800 457" fill="none" xmlns="http://www.w3.org/2000/svg">
<g clip-path="url(#clip0_871_73)">
<g clip-path="url(#clip1_871_73)">
<mask id="mask0_871_73" style="mask-type:luminance" maskUnits="userSpaceOnUse" x="0" y="-71" width="800" height="600">
<path d="M800 -71H0V529H800V-71Z" fill="white"/>
</mask>
<g mask="url(#mask0_871_73)">
<path d="M176.452 251.817V165.487C176.452 155.139 171.426 151 161.078 151C144.817 151 127.965 156.322 112 163.122V168.148H136.243V263.052C136.243 302.965 153.391 319.227 183.548 319.227C203.356 319.227 221.982 310.061 237.652 295.574V297.644C238.834 312.426 247.113 318.043 265.443 318.043C277.565 318.043 293.826 310.947 303.878 302.373L303.286 299.713H280.521L277.86 241.766V166.374C277.86 156.026 272.539 151.591 261.895 151.591C245.634 151.591 229.374 156.617 213.408 163.122V168.148H237.652V286.408C228.487 290.547 220.208 293.8 210.748 293.8C186.8 293.8 176.452 281.973 176.452 251.817Z" fill="black"/>
</g>
<mask id="mask1_871_73" style="mask-type:luminance" maskUnits="userSpaceOnUse" x="0" y="-71" width="800" height="600">
<path d="M800 -71H0V529H800V-71Z" fill="white"/>
</mask>
<g mask="url(#mask1_871_73)">
<path d="M580.692 296.479C578.382 296.479 577.014 295.253 577.014 292.566C577.014 290.398 578.476 289.03 581.493 288.323C582.625 288.041 584.181 287.852 585.359 287.664V294.877C583.615 295.96 582.106 296.479 580.692 296.479ZM581.069 286.956C576.024 287.568 570.793 289.266 570.793 294.781C570.793 297.845 573.149 300.203 577.109 300.203C580.55 300.203 583.237 298.317 585.359 295.678V296.385C585.453 299.025 586.773 300.109 589.79 300.109C591.63 300.109 594.223 299.025 595.92 297.61L595.872 297.186H592.195L591.77 287.522V280.969C591.77 275.029 587.575 273.52 583.426 273.52C579.089 273.52 574.563 276.113 572.677 277.716L573.102 278.329C574.846 277.339 577.297 276.725 579.513 276.725C582.576 276.725 585.359 278.092 585.359 281.817V286.531L581.069 286.956ZM560.043 268.853C560.893 268.853 563.722 265.836 563.722 265.223C563.722 264.469 560.752 261.64 560.043 261.64C559.337 261.64 556.462 264.375 556.462 265.223C556.462 265.977 559.289 268.853 560.043 268.853ZM563.438 286.909V275.783C563.438 274.133 562.636 273.472 560.986 273.472C558.393 273.472 555.706 274.321 553.161 275.405V276.208H557.026V286.909L556.838 296.243C556.79 297.609 556.365 298.269 554.858 298.694L553.443 299.024C553.443 299.259 553.443 299.496 553.538 299.778H567.162C567.257 299.543 567.304 299.213 567.304 299.024L565.277 298.552C564.005 298.222 563.58 297.515 563.58 296.242L563.438 286.909ZM528.883 275.783C528.883 274.133 528.081 273.472 526.431 273.472C523.839 273.472 521.151 274.321 518.606 275.405V276.208H522.471V286.909L522.283 296.243C522.236 297.609 521.811 298.269 520.304 298.694L518.89 299.024C518.89 299.259 518.89 299.496 518.984 299.778H532.608C532.703 299.543 532.75 299.213 532.75 299.024L530.724 298.552C529.451 298.222 529.026 297.515 529.026 296.242L528.885 286.908V278.8C530.724 277.952 532.372 277.622 533.882 277.622C537.653 277.622 539.538 279.365 539.585 283.985V286.909L539.397 296.243C539.35 297.609 538.925 298.269 537.417 298.694L536.004 299.024C536.004 299.259 536.004 299.496 536.098 299.778H549.722C549.816 299.543 549.864 299.213 549.864 299.024L547.837 298.552C546.565 298.222 546.14 297.515 546.14 296.242L545.998 286.908V282.429C545.998 276.018 543.075 273.472 538.267 273.472C534.779 273.472 531.384 275.311 528.886 277.621V275.783H528.883ZM503.189 275.028C506.961 275.028 508.375 278.517 508.375 284.598H496.731C496.872 277.527 499.513 275.028 503.189 275.028ZM514.362 286.202V285.069C514.362 278.564 511.156 273.472 503.566 273.472C495.929 273.472 490.696 280.167 490.696 287.804C490.696 295.959 494.468 300.249 502.718 300.249C507.385 300.249 511.298 298.411 513.231 295.912L512.901 295.44C510.214 296.43 507.715 296.713 505.782 296.713C500.644 296.713 497.202 293.79 496.778 286.388V286.2H514.362V286.202ZM443.648 276.208V286.909L443.459 296.243C443.412 297.609 442.988 298.269 441.48 298.694L440.066 299.024C440.066 299.259 440.066 299.496 440.16 299.778H453.784C453.88 299.543 453.927 299.213 453.927 299.024L451.9 298.552C450.627 298.222 450.203 297.515 450.203 296.242L450.061 286.908V278.658C451.57 277.951 453.124 277.621 454.54 277.621C458.311 277.621 460.009 279.364 460.056 283.984V286.908L459.868 296.242C459.821 297.608 459.396 298.268 457.889 298.693L456.475 299.023C456.475 299.258 456.475 299.495 456.569 299.777H470.193C470.287 299.542 470.335 299.212 470.335 299.023L468.308 298.551C467.036 298.221 466.611 297.514 466.611 296.241L466.47 286.907V282.428C466.47 281.061 466.327 279.883 466.093 278.846C467.789 278.044 469.393 277.62 470.995 277.62C474.766 277.62 476.463 279.363 476.511 283.983V286.907L476.323 296.241C476.276 297.607 475.851 298.267 474.344 298.692L472.929 299.022C472.929 299.257 472.929 299.494 473.024 299.776H486.695C486.79 299.541 486.837 299.211 486.837 299.022L484.763 298.55C483.491 298.22 483.066 297.513 483.066 296.24L482.925 286.906V282.427C482.925 276.016 480.191 273.47 475.381 273.47C471.751 273.47 468.404 275.45 465.859 277.996C464.728 274.79 462.276 273.47 458.881 273.47C455.581 273.47 452.518 275.309 450.066 277.572V275.781C450.066 274.131 449.265 273.47 447.615 273.47C445.022 273.47 442.335 274.319 439.789 275.403V276.206H443.648V276.208ZM416.069 289.549V275.783C416.069 274.133 415.268 273.472 413.618 273.472C411.025 273.472 408.339 274.321 405.793 275.405V276.208H409.658V291.34C409.658 297.705 412.392 300.298 417.2 300.298C420.359 300.298 423.329 298.836 425.828 296.526V296.856C426.016 299.213 427.337 300.109 430.26 300.109C432.193 300.109 434.785 298.978 436.389 297.61L436.294 297.186H432.663L432.239 287.946V275.925C432.239 274.275 431.391 273.567 429.693 273.567C427.1 273.567 424.508 274.37 421.963 275.406V276.209H425.828V295.065C424.366 295.725 423.047 296.244 421.538 296.244C417.72 296.243 416.069 294.357 416.069 289.549Z" fill="black"/>
</g>
<mask id="mask2_871_73" style="mask-type:luminance" maskUnits="userSpaceOnUse" x="0" y="-71" width="800" height="600">
<path d="M800 -71H0V529H800V-71Z" fill="white"/>
</mask>
<g mask="url(#mask2_871_73)">
<path d="M674.081 233.643V219.876C674.081 218.226 673.278 217.566 671.629 217.566C669.036 217.566 666.349 218.415 663.804 219.499V220.3H667.669V235.433C667.669 241.797 670.403 244.389 675.212 244.389C678.37 244.389 681.341 242.928 683.839 240.618V240.948C684.027 243.304 685.348 244.201 688.271 244.201C690.205 244.201 692.797 243.069 694.399 241.702L694.305 241.278H690.675L690.251 232.038V220.016C690.251 218.366 689.401 217.659 687.705 217.659C685.111 217.659 682.518 218.461 679.974 219.498V220.299H683.839V239.157C682.378 239.817 681.058 240.335 679.549 240.335C675.73 240.336 674.081 238.45 674.081 233.643ZM643.627 220.3V231.002L643.439 240.336C643.391 241.703 642.967 242.363 641.46 242.788L640.045 243.118C640.045 243.353 640.045 243.589 640.139 243.872H653.764C653.858 243.636 653.905 243.306 653.905 243.118L651.879 242.646C650.606 242.316 650.182 241.609 650.182 240.335L650.041 231.001V223.552C651.36 222.751 653.104 222.091 655.038 222.091C656.641 222.091 658.148 222.421 659.562 223.175L661.166 218.131C660.27 217.801 659.375 217.565 658.148 217.565C654.471 217.565 651.548 219.969 650.041 222.609V219.875C650.041 218.225 649.238 217.565 647.589 217.565C644.995 217.565 642.309 218.414 639.763 219.498V220.299L643.627 220.3ZM628.446 231.426C628.446 238.404 627.032 242.882 622.79 242.882C617.887 242.882 616.566 237.508 616.566 230.484C616.566 223.743 617.839 219.028 622.223 219.028C627.457 219.027 628.446 225.816 628.446 231.426ZM635.282 230.672C635.282 221.762 630.757 217.566 622.742 217.566C615.388 217.566 609.777 224.59 609.777 231.473C609.777 240.336 614.163 244.39 622.317 244.39C629.908 244.39 635.282 237.178 635.282 230.672ZM597.71 231.002C597.71 237.932 595.588 242.505 590.921 242.505C589.177 242.505 588.093 242.222 587.056 241.798L586.961 229.823V221.997C588.046 221.62 589.695 220.96 591.346 220.96C595.493 220.96 597.71 223.317 597.71 231.002ZM604.403 230.106C604.403 221.573 600.963 217.613 594.315 217.613C591.204 217.613 588.846 219.169 586.961 220.913V219.876C586.961 218.226 586.159 217.566 584.51 217.566C581.917 217.566 579.23 218.415 576.684 219.499V220.3H580.55V230.53L580.173 250.708C580.126 252.075 579.7 252.735 578.193 253.159L576.778 253.489C576.778 253.724 576.778 253.96 576.874 254.243H590.78C590.875 254.008 590.922 253.678 590.922 253.489L588.895 253.018C587.622 252.688 587.198 251.98 587.198 250.707L587.104 244.012C588.094 244.155 589.084 244.248 590.545 244.248C598.181 244.249 604.403 239.771 604.403 230.106ZM559.006 240.996C555.329 240.996 552.123 237.932 552.123 230.106C552.123 222.939 554.339 219.168 559.241 219.168C560.75 219.168 561.929 219.498 563.059 220.016V240.241C561.882 240.666 560.467 240.996 559.006 240.996ZM567.539 244.202C569.472 244.202 572.017 243.07 573.667 241.703L573.572 241.279H569.942L569.471 231.19V209.882C569.471 208.232 568.669 207.572 567.019 207.572C564.426 207.572 561.739 208.42 559.194 209.552V210.306H563.059V217.943C562.022 217.802 560.702 217.707 559.052 217.707C551.651 217.707 545.758 223.176 545.758 231.803C545.758 242.222 551.085 244.202 555.987 244.202C558.721 244.202 561.22 242.835 563.105 241.232C563.343 243.354 564.71 244.202 567.539 244.202ZM533.689 231.426C533.689 238.404 532.275 242.882 528.032 242.882C523.13 242.882 521.809 237.508 521.809 230.484C521.809 223.743 523.082 219.028 527.466 219.028C532.699 219.027 533.689 225.816 533.689 231.426ZM540.525 230.672C540.525 221.762 536 217.566 527.985 217.566C520.631 217.566 515.02 224.59 515.02 231.473C515.02 240.336 519.405 244.39 527.561 244.39C535.151 244.39 540.525 237.178 540.525 230.672ZM502.952 231.002C502.952 237.932 500.832 242.505 496.164 242.505C494.42 242.505 493.336 242.222 492.299 241.798L492.204 229.823V221.997C493.289 221.62 494.938 220.96 496.589 220.96C500.736 220.96 502.952 223.317 502.952 231.002ZM509.646 230.106C509.646 221.573 506.206 217.613 499.558 217.613C496.446 217.613 494.089 219.169 492.204 220.913V219.876C492.204 218.226 491.402 217.566 489.753 217.566C487.159 217.566 484.473 218.415 481.927 219.499V220.3H485.793V230.53L485.416 250.708C485.368 252.075 484.943 252.735 483.436 253.159L482.021 253.489C482.021 253.724 482.021 253.96 482.116 254.243H496.023C496.117 254.008 496.165 253.678 496.165 253.489L494.138 253.018C492.865 252.688 492.441 251.98 492.441 250.707L492.347 244.012C493.337 244.155 494.326 244.248 495.787 244.248C503.424 244.249 509.646 239.771 509.646 230.106ZM450.907 240.572C448.597 240.572 447.23 239.345 447.23 236.659C447.23 234.49 448.691 233.123 451.709 232.416C452.841 232.133 454.396 231.945 455.574 231.756V238.969C453.831 240.053 452.321 240.572 450.907 240.572ZM451.284 231.049C446.24 231.662 441.008 233.36 441.008 238.875C441.008 241.939 443.364 244.296 447.324 244.296C450.765 244.296 453.452 242.41 455.574 239.771V240.479C455.669 243.119 456.988 244.203 460.006 244.203C461.845 244.203 464.438 243.119 466.135 241.704L466.088 241.28H462.41L461.985 231.616V225.063C461.985 219.123 457.791 217.614 453.641 217.614C449.304 217.614 444.778 220.207 442.892 221.81L443.317 222.423C445.061 221.433 447.512 220.82 449.728 220.82C452.792 220.82 455.574 222.187 455.574 225.911V230.626L451.284 231.049ZM416.728 219.876C416.728 218.226 415.927 217.566 414.277 217.566C411.684 217.566 408.998 218.415 406.451 219.499V220.3H410.317V231.002L410.129 240.336C410.082 241.703 409.657 242.363 408.149 242.788L406.735 243.118C406.735 243.353 406.735 243.589 406.83 243.872H420.453C420.549 243.636 420.596 243.306 420.596 243.118L418.569 242.646C417.297 242.316 416.872 241.609 416.872 240.335L416.73 231.001V222.892C418.569 222.044 420.219 221.714 421.727 221.714C425.499 221.714 427.384 223.458 427.432 228.078V231.001L427.243 240.335C427.196 241.702 426.772 242.362 425.264 242.787L423.85 243.117C423.85 243.352 423.85 243.588 423.944 243.871H437.568C437.663 243.635 437.711 243.305 437.711 243.117L435.684 242.645C434.411 242.315 433.986 241.608 433.986 240.334L433.845 231V226.521C433.845 220.11 430.922 217.564 426.114 217.564C422.626 217.564 419.231 219.403 416.732 221.713V219.876H416.728Z" fill="black"/>
</g>
<mask id="mask3_871_73" style="mask-type:luminance" maskUnits="userSpaceOnUse" x="0" y="-71" width="800" height="600">
<path d="M800 -71H0V529H800V-71Z" fill="white"/>
</mask>
<g mask="url(#mask3_871_73)">
<path d="M505.688 185.425C502.01 185.425 498.805 182.36 498.805 174.535C498.805 167.369 501.02 163.597 505.923 163.597C507.432 163.597 508.61 163.927 509.741 164.446V184.67C508.563 185.095 507.149 185.425 505.688 185.425ZM514.221 188.63C516.154 188.63 518.7 187.499 520.35 186.132L520.256 185.708H516.626L516.153 175.619V154.31C516.153 152.66 515.352 152 513.702 152C511.109 152 508.423 152.849 505.877 153.98V154.735H509.742V162.372C508.705 162.23 507.386 162.136 505.735 162.136C498.334 162.136 492.44 167.605 492.44 176.232C492.44 186.65 497.768 188.63 502.67 188.63C505.404 188.63 507.902 187.263 509.789 185.66C510.025 187.782 511.393 188.63 514.221 188.63ZM467.407 164.305C467.407 162.655 466.606 161.995 464.957 161.995C462.363 161.995 459.677 162.843 457.131 163.927V164.729H460.996V175.43L460.808 184.765C460.761 186.132 460.337 186.792 458.828 187.216L457.415 187.546C457.415 187.782 457.415 188.018 457.509 188.3H471.134C471.228 188.065 471.275 187.735 471.275 187.546L469.248 187.075C467.976 186.745 467.552 186.038 467.552 184.765L467.409 175.43V167.322C469.248 166.473 470.898 166.143 472.407 166.143C476.178 166.143 478.064 167.888 478.111 172.508V175.43L477.923 184.765C477.876 186.132 477.451 186.792 475.943 187.216L474.529 187.546C474.529 187.782 474.529 188.018 474.623 188.3H488.248C488.343 188.065 488.39 187.735 488.39 187.546L486.363 187.075C485.091 186.745 484.666 186.038 484.666 184.765L484.524 175.43V170.952C484.524 164.54 481.601 161.995 476.794 161.995C473.305 161.995 469.91 163.833 467.411 166.143V164.305H467.407ZM445.816 175.854C445.816 182.831 444.402 187.309 440.159 187.309C435.257 187.309 433.936 181.935 433.936 174.911C433.936 168.169 435.209 163.455 439.593 163.455C444.826 163.456 445.816 170.245 445.816 175.854ZM452.652 175.1C452.652 166.19 448.127 161.995 440.112 161.995C432.758 161.995 427.147 169.019 427.147 175.902C427.147 184.765 431.532 188.819 439.687 188.819C447.277 188.819 452.652 181.605 452.652 175.1ZM429.27 155.536C429.27 153.179 425.687 152 421.209 152C416.069 152 410.365 156.243 410.365 161.429V164.069L406.594 164.493V166.049H410.365V175.43L410.177 184.765C410.13 186.132 409.705 186.792 408.197 187.216L406.783 187.546C406.783 187.782 406.783 188.018 406.878 188.3H420.55C420.644 188.065 420.691 187.735 420.691 187.546L418.664 187.075C417.392 186.745 416.968 186.038 416.968 184.765L416.825 175.43V166.049H422.435V164.069H416.825V161.099C416.825 157.045 417.345 153.415 421.445 153.415C423.567 153.415 425.028 156.102 426.632 158.6C428.044 157.987 429.27 157.186 429.27 155.536Z" fill="black"/>
</g>
<mask id="mask4_871_73" style="mask-type:luminance" maskUnits="userSpaceOnUse" x="0" y="-71" width="800" height="600">
<path d="M800 -71H0V529H800V-71Z" fill="white"/>
</mask>
<g mask="url(#mask4_871_73)">
<path d="M363.145 300.828C363.145 295.484 346.315 279.188 341.239 279.188C336.163 279.188 319.6 295.217 319.6 300.828C319.6 306.171 336.163 323.001 341.239 323.001C346.315 323.001 363.145 305.903 363.145 300.828Z" fill="black"/>
</g>
</g>
</g>
<defs>
<clipPath id="clip0_871_73">
<rect width="800" height="457" fill="white"/>
</clipPath>
<clipPath id="clip1_871_73">
<rect width="800" height="600" fill="white" transform="translate(0 -71)"/>
</clipPath>
</defs>
</svg>
