<svg width="373" height="114" viewBox="0 0 373 114" fill="none" xmlns="http://www.w3.org/2000/svg">
<rect width="373" height="114" fill="white"/>
<mask id="path-1-outside-1_838_2" maskUnits="userSpaceOnUse" x="28" y="35" width="318" height="51" fill="black">
<rect fill="white" x="28" y="35" width="318" height="51"/>
<path d="M59.335 85H54.47L37.705 62.145L32.98 67.78V85H29.2V36H32.98V61.9L54.68 36H59.615L40.19 59.135L59.335 85ZM92.072 36H97.042L114.892 85H110.867L106.842 73.94H82.307L78.282 85H74.257L92.072 36ZM83.672 70.16H105.442L94.557 40.305L83.672 70.16ZM132.095 85V36H148.23C150.563 36 152.675 36.4783 154.565 37.435C156.478 38.3683 157.995 39.745 159.115 41.565C160.258 43.3617 160.83 45.5783 160.83 48.215C160.83 49.8017 160.538 51.295 159.955 52.695C159.371 54.0717 158.625 55.2383 157.715 56.195C156.805 57.1283 155.871 57.7 154.915 57.91C156.338 58.3067 157.586 58.96 158.66 59.87C159.733 60.7567 160.631 61.8183 161.355 63.055C162.078 64.2683 162.615 65.5633 162.965 66.94C163.315 68.3167 163.49 69.6933 163.49 71.07C163.49 73.8933 162.895 76.355 161.705 78.455C160.538 80.5317 158.975 82.1417 157.015 83.285C155.055 84.4283 152.873 85 150.47 85H132.095ZM135.875 81.535H150.225C152.021 81.535 153.655 81.0683 155.125 80.135C156.595 79.1783 157.761 77.8833 158.625 76.25C159.511 74.5933 159.955 72.7267 159.955 70.65C159.955 68.7833 159.511 67.0333 158.625 65.4C157.761 63.7667 156.595 62.4483 155.125 61.445C153.655 60.4183 152.021 59.905 150.225 59.905H135.875V81.535ZM135.875 56.475H147.985C150.481 56.475 152.616 55.7633 154.39 54.34C156.163 52.8933 157.05 50.84 157.05 48.18C157.05 45.2167 156.163 43.0233 154.39 41.6C152.616 40.1767 150.481 39.465 147.985 39.465H135.875V56.475ZM181.652 85V36H185.432V85H181.652ZM205.389 85V36H209.519L236.959 78.175V36H240.739V85H236.679L209.169 42.825V85H205.389ZM259.639 85V36H289.179V39.78H263.419V56.86H284.979V60.64H263.419V81.22H289.179V85H259.639ZM344.46 36V39.78H327.1V85H323.32V39.78H305.995V36H344.46Z"/>
</mask>
<path d="M59.335 85H54.47L37.705 62.145L32.98 67.78V85H29.2V36H32.98V61.9L54.68 36H59.615L40.19 59.135L59.335 85ZM92.072 36H97.042L114.892 85H110.867L106.842 73.94H82.307L78.282 85H74.257L92.072 36ZM83.672 70.16H105.442L94.557 40.305L83.672 70.16ZM132.095 85V36H148.23C150.563 36 152.675 36.4783 154.565 37.435C156.478 38.3683 157.995 39.745 159.115 41.565C160.258 43.3617 160.83 45.5783 160.83 48.215C160.83 49.8017 160.538 51.295 159.955 52.695C159.371 54.0717 158.625 55.2383 157.715 56.195C156.805 57.1283 155.871 57.7 154.915 57.91C156.338 58.3067 157.586 58.96 158.66 59.87C159.733 60.7567 160.631 61.8183 161.355 63.055C162.078 64.2683 162.615 65.5633 162.965 66.94C163.315 68.3167 163.49 69.6933 163.49 71.07C163.49 73.8933 162.895 76.355 161.705 78.455C160.538 80.5317 158.975 82.1417 157.015 83.285C155.055 84.4283 152.873 85 150.47 85H132.095ZM135.875 81.535H150.225C152.021 81.535 153.655 81.0683 155.125 80.135C156.595 79.1783 157.761 77.8833 158.625 76.25C159.511 74.5933 159.955 72.7267 159.955 70.65C159.955 68.7833 159.511 67.0333 158.625 65.4C157.761 63.7667 156.595 62.4483 155.125 61.445C153.655 60.4183 152.021 59.905 150.225 59.905H135.875V81.535ZM135.875 56.475H147.985C150.481 56.475 152.616 55.7633 154.39 54.34C156.163 52.8933 157.05 50.84 157.05 48.18C157.05 45.2167 156.163 43.0233 154.39 41.6C152.616 40.1767 150.481 39.465 147.985 39.465H135.875V56.475ZM181.652 85V36H185.432V85H181.652ZM205.389 85V36H209.519L236.959 78.175V36H240.739V85H236.679L209.169 42.825V85H205.389ZM259.639 85V36H289.179V39.78H263.419V56.86H284.979V60.64H263.419V81.22H289.179V85H259.639ZM344.46 36V39.78H327.1V85H323.32V39.78H305.995V36H344.46Z" fill="black"/>
<path d="M59.335 85V86H61.3193L60.1388 84.4051L59.335 85ZM54.47 85L53.6637 85.5915L53.9633 86H54.47V85ZM37.705 62.145L38.5113 61.5535L37.7576 60.5259L36.9387 61.5025L37.705 62.145ZM32.98 67.78L32.2137 67.1375L31.98 67.4162V67.78H32.98ZM32.98 85V86H33.98V85H32.98ZM29.2 85H28.2V86H29.2V85ZM29.2 36V35H28.2V36H29.2ZM32.98 36H33.98V35H32.98V36ZM32.98 61.9H31.98V64.6506L33.7465 62.5422L32.98 61.9ZM54.68 36V35H54.2132L53.9135 35.3578L54.68 36ZM59.615 36L60.3808 36.643L61.7604 35H59.615V36ZM40.19 59.135L39.4242 58.492L38.917 59.096L39.3862 59.7299L40.19 59.135ZM59.335 84H54.47V86H59.335V84ZM55.2763 84.4085L38.5113 61.5535L36.8987 62.7365L53.6637 85.5915L55.2763 84.4085ZM36.9387 61.5025L32.2137 67.1375L33.7463 68.4225L38.4713 62.7875L36.9387 61.5025ZM31.98 67.78V85H33.98V67.78H31.98ZM32.98 84H29.2V86H32.98V84ZM30.2 85V36H28.2V85H30.2ZM29.2 37H32.98V35H29.2V37ZM31.98 36V61.9H33.98V36H31.98ZM33.7465 62.5422L55.4465 36.6422L53.9135 35.3578L32.2135 61.2578L33.7465 62.5422ZM54.68 37H59.615V35H54.68V37ZM58.8492 35.357L39.4242 58.492L40.9558 59.778L60.3808 36.643L58.8492 35.357ZM39.3862 59.7299L58.5312 85.5949L60.1388 84.4051L40.9938 58.5401L39.3862 59.7299ZM92.072 36V35H91.3716L91.1322 35.6583L92.072 36ZM97.042 36L97.9816 35.6577L97.742 35H97.042V36ZM114.892 85V86H116.321L115.832 84.6577L114.892 85ZM110.867 85L109.927 85.342L110.167 86H110.867V85ZM106.842 73.94L107.782 73.598L107.542 72.94H106.842V73.94ZM82.307 73.94V72.94H81.6068L81.3673 73.598L82.307 73.94ZM78.282 85V86H78.9823L79.2217 85.342L78.282 85ZM74.257 85L73.3172 84.6583L72.8294 86H74.257V85ZM83.672 70.16L82.7325 69.8175L82.243 71.16H83.672V70.16ZM105.442 70.16V71.16H106.871L106.382 69.8175L105.442 70.16ZM94.557 40.305L95.4965 39.9625L94.557 37.3856L93.6175 39.9625L94.557 40.305ZM92.072 37H97.042V35H92.072V37ZM96.1024 36.3423L113.952 85.3423L115.832 84.6577L97.9816 35.6577L96.1024 36.3423ZM114.892 84H110.867V86H114.892V84ZM111.807 84.658L107.782 73.598L105.902 74.282L109.927 85.342L111.807 84.658ZM106.842 72.94H82.307V74.94H106.842V72.94ZM81.3673 73.598L77.3423 84.658L79.2217 85.342L83.2467 74.282L81.3673 73.598ZM78.282 84H74.257V86H78.282V84ZM75.1968 85.3417L93.0118 36.3417L91.1322 35.6583L73.3172 84.6583L75.1968 85.3417ZM83.672 71.16H105.442V69.16H83.672V71.16ZM106.382 69.8175L95.4965 39.9625L93.6175 40.6475L104.503 70.5025L106.382 69.8175ZM93.6175 39.9625L82.7325 69.8175L84.6115 70.5025L95.4965 40.6475L93.6175 39.9625ZM132.095 85H131.095V86H132.095V85ZM132.095 36V35H131.095V36H132.095ZM154.565 37.435L154.113 38.3272L154.119 38.3305L154.126 38.3338L154.565 37.435ZM159.115 41.565L158.263 42.0891L158.267 42.0955L158.271 42.1019L159.115 41.565ZM159.955 52.695L160.875 53.0852L160.878 53.0796L159.955 52.695ZM157.715 56.195L158.431 56.8932L158.439 56.8842L157.715 56.195ZM154.915 57.91L154.7 56.9333L154.646 58.8733L154.915 57.91ZM158.66 59.87L158.013 60.6328L158.023 60.641L158.66 59.87ZM161.355 63.055L160.491 63.5599L160.496 63.5671L161.355 63.055ZM162.965 66.94L163.934 66.6936L163.934 66.6936L162.965 66.94ZM161.705 78.455L160.835 77.962L160.833 77.9652L161.705 78.455ZM157.015 83.285L156.511 82.4212L156.511 82.4212L157.015 83.285ZM135.875 81.535H134.875V82.535H135.875V81.535ZM155.125 80.135L155.661 80.9793L155.67 80.9731L155.125 80.135ZM158.625 76.25L157.743 75.7781L157.74 75.7827L158.625 76.25ZM158.625 65.4L157.74 65.8673L157.746 65.8771L158.625 65.4ZM155.125 61.445L154.552 62.2649L154.561 62.2709L155.125 61.445ZM135.875 59.905V58.905H134.875V59.905H135.875ZM135.875 56.475H134.875V57.475H135.875V56.475ZM154.39 54.34L155.015 55.1199L155.022 55.1149L154.39 54.34ZM154.39 41.6L153.764 42.3799L153.764 42.3799L154.39 41.6ZM135.875 39.465V38.465H134.875V39.465H135.875ZM133.095 85V36H131.095V85H133.095ZM132.095 37H148.23V35H132.095V37ZM148.23 37C150.422 37 152.377 37.4484 154.113 38.3272L155.016 36.5428C152.972 35.5083 150.704 35 148.23 35V37ZM154.126 38.3338C155.868 39.1836 157.242 40.43 158.263 42.0891L159.966 41.0409C158.747 39.06 157.087 37.5531 155.003 36.5362L154.126 38.3338ZM158.271 42.1019C159.29 43.7037 159.83 45.7232 159.83 48.215H161.83C161.83 45.4334 161.225 43.0196 159.958 41.0281L158.271 42.1019ZM159.83 48.215C159.83 49.6758 159.562 51.0379 159.031 52.3104L160.878 53.0796C161.514 51.5521 161.83 49.9275 161.83 48.215H159.83ZM159.034 52.3048C158.491 53.5854 157.807 54.6469 156.99 55.5058L158.439 56.8842C159.442 55.8297 160.251 54.558 160.875 53.0851L159.034 52.3048ZM156.999 55.4969C156.181 56.3357 155.412 56.7769 154.7 56.9333L155.129 58.8867C156.33 58.6231 157.428 57.921 158.431 56.8931L156.999 55.4969ZM154.646 58.8733C155.937 59.2332 157.055 59.8208 158.013 60.6328L159.306 59.1072C158.117 58.0992 156.738 57.3801 155.183 56.9467L154.646 58.8733ZM158.023 60.641C159.003 61.4507 159.826 62.4215 160.491 63.5599L162.218 62.5501C161.437 61.2152 160.463 60.0626 159.296 59.099L158.023 60.641ZM160.496 63.5671C161.169 64.6971 161.669 65.9026 161.995 67.1864L163.934 66.6936C163.56 65.2241 162.986 63.8395 162.213 62.5429L160.496 63.5671ZM161.995 67.1864C162.326 68.4851 162.49 69.779 162.49 71.07H164.49C164.49 69.6076 164.304 68.1482 163.934 66.6936L161.995 67.1864ZM162.49 71.07C162.49 73.7501 161.926 76.0361 160.835 77.962L162.575 78.948C163.863 76.6739 164.49 74.0366 164.49 71.07H162.49ZM160.833 77.9652C159.749 79.8947 158.309 81.3721 156.511 82.4212L157.518 84.1488C159.64 82.9112 161.327 81.1686 162.576 78.9448L160.833 77.9652ZM156.511 82.4212C154.713 83.47 152.707 84 150.47 84V86C153.039 86 155.396 85.3867 157.518 84.1488L156.511 82.4212ZM150.47 84H132.095V86H150.47V84ZM135.875 82.535H150.225V80.535H135.875V82.535ZM150.225 82.535C152.205 82.535 154.025 82.0177 155.661 80.9792L154.589 79.2908C153.284 80.119 151.838 80.535 150.225 80.535V82.535ZM155.67 80.9731C157.29 79.9187 158.57 78.4927 159.509 76.7173L157.74 75.7827C156.952 77.2739 155.899 78.438 154.579 79.2969L155.67 80.9731ZM159.506 76.7219C160.478 74.9053 160.955 72.8736 160.955 70.65H158.955C158.955 72.5797 158.544 74.2814 157.743 75.7781L159.506 76.7219ZM160.955 70.65C160.955 68.6175 160.47 66.7034 159.503 64.9229L157.746 65.8771C158.552 67.3633 158.955 68.9492 158.955 70.65H160.955ZM159.509 64.9327C158.572 63.1612 157.298 61.7176 155.688 60.619L154.561 62.2709C155.891 63.179 156.95 64.3721 157.74 65.8673L159.509 64.9327ZM155.697 60.6252C154.059 59.481 152.226 58.905 150.225 58.905V60.905C151.817 60.905 153.25 61.3557 154.552 62.2648L155.697 60.6252ZM150.225 58.905H135.875V60.905H150.225V58.905ZM134.875 59.905V81.535H136.875V59.905H134.875ZM135.875 57.475H147.985V55.475H135.875V57.475ZM147.985 57.475C150.685 57.475 153.047 56.6999 155.015 55.1199L153.764 53.5601C152.185 54.8268 150.277 55.475 147.985 55.475V57.475ZM155.022 55.1149C157.067 53.4463 158.05 51.0859 158.05 48.18H156.05C156.05 50.5941 155.259 52.3404 153.757 53.5651L155.022 55.1149ZM158.05 48.18C158.05 45.0128 157.093 42.4878 155.015 40.8201L153.764 42.3799C155.233 43.5589 156.05 45.4206 156.05 48.18H158.05ZM155.015 40.8201C153.047 39.2401 150.685 38.465 147.985 38.465V40.465C150.277 40.465 152.185 41.1132 153.764 42.3799L155.015 40.8201ZM147.985 38.465H135.875V40.465H147.985V38.465ZM134.875 39.465V56.475H136.875V39.465H134.875ZM181.652 85H180.652V86H181.652V85ZM181.652 36V35H180.652V36H181.652ZM185.432 36H186.432V35H185.432V36ZM185.432 85V86H186.432V85H185.432ZM182.652 85V36H180.652V85H182.652ZM181.652 37H185.432V35H181.652V37ZM184.432 36V85H186.432V36H184.432ZM185.432 84H181.652V86H185.432V84ZM205.389 85H204.389V86H205.389V85ZM205.389 36V35H204.389V36H205.389ZM209.519 36L210.358 35.4546L210.062 35H209.519V36ZM236.959 78.175L236.121 78.7204L237.959 81.5457V78.175H236.959ZM236.959 36V35H235.959V36H236.959ZM240.739 36H241.739V35H240.739V36ZM240.739 85V86H241.739V85H240.739ZM236.679 85L235.842 85.5463L236.138 86H236.679V85ZM209.169 42.825L210.007 42.2787L208.169 39.4615V42.825H209.169ZM209.169 85V86H210.169V85H209.169ZM206.389 85V36H204.389V85H206.389ZM205.389 37H209.519V35H205.389V37ZM208.681 36.5454L236.121 78.7204L237.798 77.6296L210.358 35.4546L208.681 36.5454ZM237.959 78.175V36H235.959V78.175H237.959ZM236.959 37H240.739V35H236.959V37ZM239.739 36V85H241.739V36H239.739ZM240.739 84H236.679V86H240.739V84ZM237.517 84.4537L210.007 42.2787L208.332 43.3713L235.842 85.5463L237.517 84.4537ZM208.169 42.825V85H210.169V42.825H208.169ZM209.169 84H205.389V86H209.169V84ZM259.639 85H258.639V86H259.639V85ZM259.639 36V35H258.639V36H259.639ZM289.179 36H290.179V35H289.179V36ZM289.179 39.78V40.78H290.179V39.78H289.179ZM263.419 39.78V38.78H262.419V39.78H263.419ZM263.419 56.86H262.419V57.86H263.419V56.86ZM284.979 56.86H285.979V55.86H284.979V56.86ZM284.979 60.64V61.64H285.979V60.64H284.979ZM263.419 60.64V59.64H262.419V60.64H263.419ZM263.419 81.22H262.419V82.22H263.419V81.22ZM289.179 81.22H290.179V80.22H289.179V81.22ZM289.179 85V86H290.179V85H289.179ZM260.639 85V36H258.639V85H260.639ZM259.639 37H289.179V35H259.639V37ZM288.179 36V39.78H290.179V36H288.179ZM289.179 38.78H263.419V40.78H289.179V38.78ZM262.419 39.78V56.86H264.419V39.78H262.419ZM263.419 57.86H284.979V55.86H263.419V57.86ZM283.979 56.86V60.64H285.979V56.86H283.979ZM284.979 59.64H263.419V61.64H284.979V59.64ZM262.419 60.64V81.22H264.419V60.64H262.419ZM263.419 82.22H289.179V80.22H263.419V82.22ZM288.179 81.22V85H290.179V81.22H288.179ZM289.179 84H259.639V86H289.179V84ZM344.46 36H345.46V35H344.46V36ZM344.46 39.78V40.78H345.46V39.78H344.46ZM327.1 39.78V38.78H326.1V39.78H327.1ZM327.1 85V86H328.1V85H327.1ZM323.32 85H322.32V86H323.32V85ZM323.32 39.78H324.32V38.78H323.32V39.78ZM305.995 39.78H304.995V40.78H305.995V39.78ZM305.995 36V35H304.995V36H305.995ZM343.46 36V39.78H345.46V36H343.46ZM344.46 38.78H327.1V40.78H344.46V38.78ZM326.1 39.78V85H328.1V39.78H326.1ZM327.1 84H323.32V86H327.1V84ZM324.32 85V39.78H322.32V85H324.32ZM323.32 38.78H305.995V40.78H323.32V38.78ZM306.995 39.78V36H304.995V39.78H306.995ZM305.995 37H344.46V35H305.995V37Z" fill="black" mask="url(#path-1-outside-1_838_2)"/>
</svg>
