<svg width="10" height="9" viewBox="0 0 10 9" fill="none" xmlns="http://www.w3.org/2000/svg">
<g clip-path="url(#clip0_971_15)">
<path d="M4.96894 8.31225C5.22855 8.26345 5.4035 8.13006 5.47686 7.90395C5.55776 7.65507 5.46934 7.44848 5.26429 7.2728C4.47419 6.59122 3.6822 5.91127 2.89022 5.22969C2.49517 4.88808 2.102 4.54323 1.66744 4.16584L5.26805 1.05237C5.56904 0.792098 5.58597 0.421215 5.32261 0.180466C5.05736 -0.0602835 4.60775 -0.0635367 4.3124 0.190226C2.94665 1.36469 1.58279 2.54403 0.224563 3.72501C-0.0707846 3.98202 -0.0783095 4.34152 0.213276 4.59691C1.57714 5.78439 2.94477 6.96698 4.31617 8.14633C4.49676 8.29924 4.71874 8.36105 4.96894 8.31225Z" fill="black"/>
<path d="M9.09394 8.31227C9.35167 8.26347 9.52662 8.13008 9.59998 7.90397C9.68087 7.65346 9.59246 7.4485 9.38741 7.27282C8.59731 6.59124 7.80532 5.91129 7.01334 5.22971C6.61829 4.8881 6.22512 4.54325 5.79056 4.16586L9.39305 1.05239C9.69404 0.792118 9.71097 0.421235 9.44761 0.180486C9.18236 -0.0602632 8.73275 -0.0635164 8.4374 0.190246C7.07165 1.36471 5.70779 2.54405 4.34956 3.72503C4.05421 3.98204 4.04669 4.34154 4.33828 4.59693C5.70026 5.78115 7.06789 6.96538 8.44117 8.14472C8.61988 8.29926 8.84186 8.36107 9.09394 8.31227Z" fill="black"/>
</g>
<defs>
<clipPath id="clip0_971_15">
<rect width="9.6317" height="8.32861" fill="white" transform="matrix(-1 0 0 -1 9.63086 8.32861)"/>
</clipPath>
</defs>
</svg>
